# Blender v2.79 (sub 0) OBJ File: ''
# www.blender.org
mtllib rat.mtl
o SWP_RAT
v 0.581250 0.225000 0.675000
v 0.356250 0.168750 0.843750
v 0.431250 0.000000 0.768750
v 0.562500 0.000000 0.600000
v 0.581250 0.318750 -0.618750
v 0.243750 0.543750 -0.993750
v 0.675000 0.675000 -0.506250
v 0.412500 1.050000 -0.543750
v -0.675000 0.675000 -0.506250
v -0.412500 1.050000 -0.543750
v -0.243750 0.543750 -0.993750
v -0.581250 0.318750 -0.618750
v 0.581250 0.225000 0.675000
v -0.581250 0.225000 0.675000
v 0.675000 0.637500 0.300000
v 0.431250 0.393750 0.843750
v 0.356250 0.168750 0.843750
v -0.356250 0.168750 0.843750
v 0.412500 0.918750 0.318750
v -0.412500 0.918750 0.318750
v -0.675000 0.637500 0.300000
v -0.300000 0.768750 0.862500
v 0.300000 0.768750 0.862500
v -0.431250 0.393750 0.843750
v -0.356250 0.168750 0.843750
v -0.581250 0.225000 0.675000
v -0.562500 0.000000 0.600000
v -0.431250 0.000000 0.768750
v -0.356250 0.768750 1.125000
v 0.356250 0.768750 1.125000
v 0.300000 0.768750 0.862500
v -0.300000 0.768750 0.862500
v 0.525000 0.375000 1.125000
v 0.431250 0.393750 0.862500
v -0.525000 0.375000 1.125000
v -0.431250 0.393750 0.862500
v -0.318750 0.375000 1.912500
v -0.262500 0.543750 1.912500
v -0.356250 0.750000 1.425000
v -0.506250 0.337500 1.406250
v 0.356250 0.750000 1.425000
v 0.506250 0.881250 1.293750
v 0.525000 0.881250 1.181250
v -0.506250 0.881250 1.293750
v -0.525000 0.881250 1.181250
v 0.506250 0.337500 1.406250
v 0.262500 0.543750 1.912500
v 0.318750 0.375000 1.912500
v -0.581250 0.318750 -0.618750
v -0.243750 0.543750 -0.993750
v -0.525000 -0.000000 -0.843750
v -0.600000 -0.000000 -0.731250
v 0.525000 -0.000000 -0.825000
v 0.243750 0.543750 -0.993750
v 0.581250 0.318750 -0.618750
v 0.600000 -0.000000 -0.731250
v 0.562500 -0.037500 0.975000
v 0.656250 -0.018750 0.768750
v -0.656250 -0.018750 0.768750
v -0.562500 -0.037500 0.975000
v -0.225000 0.375000 2.006250
v -0.206250 0.412500 2.006250
v 0.206250 0.412500 2.006250
v 0.225000 0.375000 2.006250
v 0.150000 0.356250 -1.593750
v -0.112500 0.375000 -1.593750
v -0.243750 0.543750 -0.993750
v 0.243750 0.543750 -0.993750
v 0.150000 0.375000 -1.593750
v 0.056250 0.337500 -2.156250
v -0.037500 0.337500 -2.156250
v -0.112500 0.375000 -1.593750
v 0.000000 0.468750 -2.756250
v -0.018750 0.468750 -2.756250
v -0.600000 -0.037500 -0.750000
v -0.487500 -0.168750 -0.525000
v -0.431250 -0.056250 -0.731250
v 0.431250 -0.056250 -0.731250
v 0.487500 -0.187500 -0.525000
v 0.600000 -0.037500 -0.750000
vt 0.901376 0.661524
vt 0.902802 0.625282
vt 0.926042 0.635039
vt 0.931462 0.661524
vt 0.717325 0.466288
vt 0.716146 0.465348
vt 0.718024 0.465063
vt 0.717087 0.463641
vt 0.713329 0.464958
vt 0.714512 0.463774
vt 0.715095 0.465316
vt 0.713901 0.466507
vt 0.759913 0.514726
vt 0.655678 0.496274
vt 0.739122 0.467188
vt 0.955837 0.588697
vt 0.745469 0.533015
vt 0.660290 0.524248
vt 0.734837 0.450900
vt 0.699471 0.442340
vt 0.689152 0.459292
vt 0.594731 0.294685
vt 0.955837 0.267030
vt 0.540643 0.489819
vt 0.931438 0.588854
vt 0.931438 0.625125
vt 0.901376 0.623942
vt 0.907832 0.597690
vt 0.596149 0.698533
vt 0.680659 0.699964
vt 0.676588 0.732970
vt 0.599166 0.732851
vt 0.735492 0.694082
vt 0.730464 0.732195
vt 0.540643 0.690933
vt 0.544275 0.729923
vt 0.581351 0.588854
vt 0.603662 0.597107
vt 0.598211 0.662495
vt 0.544735 0.651277
vt 0.679062 0.664869
vt 0.761723 0.670249
vt 0.761723 0.632237
vt 0.786238 0.649838
vt 0.787640 0.664192
vt 0.737051 0.649838
vt 0.761566 0.632237
vt 0.761566 0.670249
vt 0.735649 0.664192
vt 0.732915 0.654758
vt 0.674904 0.596281
vt 0.698230 0.588854
vt 0.790525 0.632080
vt 0.735649 0.588854
vt 0.815354 0.588854
vt 0.822978 0.604159
vt 0.887358 0.637061
vt 0.823135 0.588854
vt 0.892991 0.588854
vt 0.901219 0.630867
vt 0.345024 0.404768
vt 0.325110 0.324210
vt 0.405274 0.271386
vt 0.405274 0.359627
vt 0.213914 0.687292
vt 0.135691 0.714989
vt 0.140232 0.639842
vt 0.213914 0.591288
vt 0.184267 0.515616
vt 0.194223 0.528489
vt 0.172389 0.591097
vt 0.135691 0.532612
vt 0.354339 0.528489
vt 0.364295 0.515616
vt 0.412871 0.532612
vt 0.376173 0.591097
vt 0.288767 0.515424
vt 0.186637 0.513318
vt 0.135691 0.271386
vt 0.324919 0.271386
vt 0.135499 0.271386
vt 0.099109 0.490211
vt 0.062719 0.490211
vt 0.033607 0.271386
vt 0.077275 0.728614
vt 0.069998 0.728614
vt 0.405466 0.359508
vt 0.471530 0.271386
vt 0.471530 0.365156
vt 0.424887 0.404301
vt 0.430246 0.648020
vt 0.413063 0.594823
vt 0.469699 0.515616
vt 0.469699 0.629302
vn 0.6918 -0.1686 0.7021
vn 0.7472 0.0132 -0.6645
vn 0.6393 0.3807 -0.6681
vn -0.6393 0.3807 -0.6681
vn -0.7472 0.0132 -0.6645
vn 0.0000 -0.9974 -0.0723
vn 0.8022 0.1304 0.5827
vn 0.0000 -0.8575 -0.5145
vn 0.0000 -0.9487 -0.3162
vn 0.0000 0.9886 0.1504
vn -0.9702 -0.2418 -0.0151
vn 0.9702 -0.2418 -0.0151
vn 0.0000 0.9640 0.2659
vn 0.7784 0.6245 0.0632
vn -0.7784 0.6245 0.0632
vn -0.7883 0.4489 0.4208
vn 0.7883 0.4489 0.4208
vn -0.8022 0.1304 0.5827
vn 0.0000 0.6644 -0.7474
vn -0.6918 -0.1686 0.7021
vn 0.0000 1.0000 0.0000
vn 0.9031 0.3524 -0.2454
vn -0.9031 0.3524 -0.2454
vn -0.8999 0.3094 0.3072
vn 0.0000 0.9981 0.0624
vn -0.9285 0.3656 0.0653
vn -0.6062 0.7953 0.0086
vn 0.6062 0.7953 0.0086
vn 0.9285 0.3656 0.0653
vn 0.8999 0.3094 0.3072
vn 0.0000 0.9210 0.3896
vn -0.7930 0.2517 -0.5548
vn 0.7828 0.2347 -0.5762
vn 0.0826 0.9916 0.0992
vn -0.0826 0.9916 0.0992
vn -0.6675 0.2427 0.7039
vn 0.6675 0.2427 0.7039
vn 0.0000 0.5812 0.8137
vn 0.0240 0.9586 -0.2838
vn 0.0000 0.9978 -0.0665
vn 0.0000 0.9769 0.2137
vn 0.0469 0.8851 0.4631
vn -0.0359 0.8495 0.5264
usemtl rat_colors.png
s off
f 1/1/1 2/2/1 3/3/1 4/4/1
f 5/5/2 6/6/2 7/7/2
f 8/8/3 7/7/3 6/6/3
f 9/9/4 10/10/4 11/11/4
f 12/12/5 9/9/5 11/11/5
f 5/5/6 13/13/6 14/14/6 12/12/6
f 15/15/7 16/16/7 17/17/7 13/13/7
f 11/11/8 6/6/8 5/5/8 12/12/8
f 17/17/9 18/18/9 14/14/9 13/13/9
f 19/19/10 8/8/10 10/10/10 20/20/10
f 12/12/11 14/14/11 21/21/11 9/9/11
f 13/13/12 5/5/12 7/7/12 15/15/12
f 22/22/13 23/23/13 19/19/13 20/20/13
f 8/8/14 19/19/14 15/15/14 7/7/14
f 21/21/15 20/20/15 10/10/15 9/9/15
f 22/22/16 20/20/16 21/21/16 24/24/16
f 19/19/17 23/23/17 16/16/17 15/15/17
f 24/24/18 21/21/18 14/14/18 18/18/18
f 11/11/19 10/10/19 8/8/19 6/6/19
f 25/25/20 26/26/20 27/27/20 28/28/20
f 29/29/21 30/30/21 31/31/21 32/32/21
f 30/30/22 33/33/22 34/34/22 31/31/22
f 35/35/23 29/29/23 32/32/23 36/36/23
f 37/37/24 38/38/24 39/39/24 40/40/24
f 39/39/25 41/41/25 30/30/25 29/29/25
f 35/35/26 40/40/26 39/39/26 29/29/26
f 30/42/27 41/43/27 42/44/27 43/45/27
f 44/46/28 39/47/28 29/48/28 45/49/28
f 30/30/29 41/41/29 46/50/29 33/33/29
f 47/51/30 48/52/30 46/50/30 41/41/30
f 38/38/31 47/51/31 41/41/31 39/39/31
f 49/53/32 50/54/32 51/55/32 52/56/32
f 53/57/33 54/58/33 55/59/33 56/60/33
f 4/61/34 3/62/34 57/63/34 58/64/34
f 28/65/35 27/66/35 59/67/35 60/68/35
f 61/69/36 62/70/36 38/71/36 37/72/36
f 63/73/37 64/74/37 48/75/37 47/76/37
f 62/70/38 63/73/38 47/76/38 38/71/38
f 65/77/39 66/78/39 67/79/39 68/80/39
f 69/81/40 70/82/40 71/83/40 72/84/40
f 71/83/41 70/82/41 73/85/41 74/86/41
f 75/87/42 76/88/42 77/89/42 51/90/42
f 53/91/43 78/92/43 79/93/43 80/94/43
